<svg xmlns="http://www.w3.org/2000/svg" viewBox="0 0 63 20" width="300pt" height="200pt">
<g id="WCM">
    <path fill="#cf4520" d="M.71 2.58l.2-1.37a.19.19 0 01.19-.16h3c.08 0 .14.05.17.16l2.84 12.13 3.46-12.13a.17.17 0 01.18-.16h3.62c.09 0 .14.05.17.17L18 13.35 20.86 1.2c0-.1.08-.15.16-.15h3a.18.18 0 01.19.16l.18 1.37-4.08 16.25c0 .11-.08.17-.18.17h-3.87c-.09 0-.15-.05-.18-.16L12.53 6.51 8.94 18.83c0 .11-.09.17-.17.17H5c-.08 0-.13-.05-.16-.16zM25.49 10a9.71 9.71 0 012.28-6.86A8.11 8.11 0 0134.05.68a11.8 11.8 0 012.69.32 7.94 7.94 0 012 .74 6.89 6.89 0 011.46 1.03 5.5 5.5 0 011.46 2.35l-.43 1.4a.18.18 0 01-.19.16H38.4a.17.17 0 01-.17-.14A4.71 4.71 0 0038 6a3.54 3.54 0 00-.43-.63 3.72 3.72 0 00-.72-.65 4.08 4.08 0 00-1.1-.47 5.76 5.76 0 00-1.55-.2 4.44 4.44 0 00-3.64 1.44A7.05 7.05 0 0029.4 10a7.06 7.06 0 001.18 4.5 4.42 4.42 0 003.64 1.5 5.38 5.38 0 001.55-.21 4.57 4.57 0 001.09-.46 3.23 3.23 0 00.72-.67A4 4 0 0038 14c.07-.14.14-.31.23-.52s.11-.14.18-.14H41c.08 0 .14.06.19.17l.43 1.37a5.58 5.58 0 01-.52 1.18 5.5 5.5 0 01-.94 1.18 6.93 6.93 0 01-1.43 1.07 7.94 7.94 0 01-2 .74 11.26 11.26 0 01-2.69.29 8.08 8.08 0 01-6.28-2.48A9.73 9.73 0 0125.49 10z" transform="translate(-.71 -.68)"/>
    <path fill="#e87722" d="M43.7 18.84V1.21c0-.11.06-.16.18-.16h3.78c.13 0 .2.05.22.16l5.45 12.68 5.28-12.68a.2.2 0 01.22-.16h3.78c.12 0 .18.05.18.16v17.63c0 .11-.06.16-.18.16h-2.84a.21.21 0 01-.2-.16l-.39-1.38v-8.7l-4.34 10.08c0 .11-.09.16-.22.16H51.8a.2.2 0 01-.23-.16L47.31 8.76v8.7l-.39 1.38a.18.18 0 01-.2.16h-2.84c-.12 0-.18 0-.18-.16z" transform="translate(-.71 -.68)"/>
</g>
</svg>
