<?xml version="1.0" encoding="utf-8"?>
<!-- Generator: Adobe Illustrator 21.1.0, SVG Export Plug-In . SVG Version: 6.00 Build 0)  -->
<svg version="1.1" id="Calque_1" xmlns="http://www.w3.org/2000/svg" xmlns:xlink="http://www.w3.org/1999/xlink" x="0px" y="0px"
	 width="241.67pt" height="48pt" viewBox="0 0 749.2 148.8" style="enable-background:new 0 0 749.2 148.8;" xml:space="preserve"
	>
<style type="text/css">
	.st0{fill:#231F20;}
	.st1{fill:#0A0D0E;}
	.st2{fill:none;stroke:#0A0D0E;stroke-width:10;stroke-miterlimit:10;}
</style>
<g transform="matrix(.13333333 0 0 -.13333333 0 249.22667)">
	<g>
		<path class="st0" d="M4068.6,1630.2h82.6l110.4-330h1.7l109.6,330h83.5v-623.1h-86V1386h-1.6l-85.1-267.8h-43l-84.3,267.8h-1.7
			v-378.9h-85.9V1630.2z"/>
		<path class="st0" d="M4568,1483.1c0,101.6,74.2,152.2,144.2,152.2c69.9,0,144.1-50.6,144.1-152.2v-329
			c0-101.5-74.2-152.4-144.1-152.4c-69.9,0-144.2,50.9-144.2,152.4V1483.1z M4653.9,1154.1c0-42.9,27-63.1,58.2-63.1
			c31.2,0,58.2,20.2,58.2,63.1v329c0,42.9-27,63-58.2,63c-31.2,0-58.2-20.1-58.2-63V1154.1z"/>
		<path class="st0" d="M4967.9,1630.2h138.2c102,0,151.8-62.1,151.8-182.9c0-71.8-19.4-124.2-74.1-155.8l92.7-284.3h-91.1l-80.1,266
			h-51.4v-266h-86L4967.9,1630.2z M5053.9,1351.9h48.8c59.9,0,69.1,35,69.1,97.2c0,63-10.1,97.1-73.3,97.1h-44.6V1351.9z"/>
		<path class="st0" d="M5362.7,1630.2v-623.1h256.3v89.2h-170.2v182.9h148.3v84.1h-148.3v182.9h170.2v84.1L5362.7,1630.2z"/>
		<path class="st0" d="M3873.3,1313.6c0-192.6-150.4-348.7-335.9-348.7c-185.5,0-335.9,156.1-335.9,348.7
			c0,192.6,150.4,348.8,335.9,348.8C3722.9,1662.3,3873.3,1506.2,3873.3,1313.6 M3482.6,1370.5c-30.2-31.4-30.2-82.4,0-113.8
			c30.3-31.5,79.4-31.5,109.6,0c30.3,31.5,30.3,82.4,0,113.8C3562,1401.9,3512.9,1401.9,3482.6,1370.5"/>
		<path class="st0" d="M2812.8,1630.2h82.7l129.7-375.5h1.8v375.5h85.9v-623.1h-80.9l-131.5,374.6h-1.7v-374.6h-86V1630.2z"/>
		<path class="st0" d="M3873.3,1313.6c0-192.6-150.4-348.7-335.9-348.7c-185.5,0-335.9,156.1-335.9,348.7
			c0,192.6,150.4,348.8,335.9,348.8C3722.9,1662.3,3873.3,1506.2,3873.3,1313.6 M3482.6,1370.5c-30.2-31.4-30.2-82.4,0-113.8
			c30.3-31.5,79.4-31.5,109.6,0c30.3,31.5,30.3,82.4,0,113.8C3562,1401.9,3512.9,1401.9,3482.6,1370.5"/>
	</g>
	<g>
		<path class="st1" d="M246.6,1080c86.3,0,153.1,66.8,153.1,165.6v384.5h93.5v-623.1h-92.6v57.9c-41.8-43.6-99.7-68.6-164.7-68.6
			c-133.5,0-235.9,97-235.9,243.9v389.9h93.5v-384.5C93.5,1145,159.3,1080,246.6,1080"/>
		<path class="st1" d="M807.3,1075.6c85.5,0,155.8,70.3,155.8,157.6c0,88.1-70.3,157.5-155.8,157.5c-86.4,0-156.7-69.4-156.7-157.5
			C650.7,1145.9,720.1,1075.6,807.3,1075.6 M562.6,1630.1h89.9v-227c41,41.8,97.9,67.7,161.1,67.7c133.5,0,238.6-105.9,238.6-237.7
			c0-130.9-105-236.8-238.6-236.8c-63.2,0-121.1,25.8-162,67.7v-57h-89V1630.1z"/>
		<path class="st1" d="M1180.3,1275.9h276.8c-15.1,69.4-71.2,115.7-138,115.7S1196.3,1345.3,1180.3,1275.9 M1320.9,1469.9
			c130.8,0,227-100.6,227-235.9v-29.4h-369.4c12.5-73.9,73.9-129.1,150.4-129.1c52.5,0,97,21.4,130.8,66.8l65-48.1
			c-45.4-60.5-113.1-97-195.8-97c-136.2,0-241.2,101.5-241.2,236.8C1087.7,1362.2,1188.3,1469.9,1320.9,1469.9"/>
		<path class="st1" d="M1789.1,1380.9c-58.7,0-101.5-45.4-101.5-115.7v-258.1h-89.9v454h89v-56.1c22.3,36.5,58.8,59.6,108.6,59.6
			h31.2v-83.7H1789.1z"/>
	</g>
	<path class="st2" d="M2319.6,1876.7V760.5"/>
</g>
</svg>
